<?xml version="1.0" standalone="no"?>
<!DOCTYPE svg PUBLIC "-//W3C//DTD SVG 20010904//EN"
 "http://www.w3.org/TR/2001/REC-SVG-20010904/DTD/svg10.dtd">
<svg version="1.0" xmlns="http://www.w3.org/2000/svg"
 width="150.000000pt" height="150.000000pt" viewBox="0 0 150.000000 150.000000"
 preserveAspectRatio="xMidYMid meet">
<metadata>
Created by potrace 1.14, written by Peter Selinger 2001-2017
</metadata>
<g transform="translate(0.000000,150.000000) scale(0.100000,-0.100000)"
fill="#000000" stroke="none">
<path d="M392 1098 c83 -107 207 -269 291 -381 l66 -88 147 193 c81 106 177
230 212 276 l64 82 -422 0 -422 0 64 -82z"/>
<path d="M203 902 c-67 -24 -118 -64 -153 -119 -96 -150 -45 -342 113 -429 45
-24 63 -28 132 -29 68 0 89 4 138 29 175 86 219 319 88 469 -72 81 -213 117
-318 79z"/>
<path d="M1123 911 c-122 -31 -223 -163 -223 -291 0 -103 67 -213 161 -265 47
-26 64 -29 134 -30 104 0 177 33 236 107 151 191 30 470 -210 483 -36 2 -80 0
-98 -4z"/>
</g>
</svg>
